<mxfile host="app.diagrams.net" modified="2024-05-31T01:46:11.258Z" agent="Mozilla/5.0 (Windows NT 10.0; Win64; x64) AppleWebKit/537.36 (KHTML, like Gecko) Chrome/125.0.0.0 Safari/537.36" etag="eD7grkcgJ0BcdH5GXOl3" version="24.4.10" type="google">
  <diagram name="페이지-1" id="N5Lon5U5i59ucAY6VF5x">
    <mxGraphModel grid="0" page="1" gridSize="10" guides="1" tooltips="1" connect="1" arrows="1" fold="1" pageScale="1" pageWidth="3300" pageHeight="2339" math="0" shadow="0">
      <root>
        <mxCell id="0" />
        <mxCell id="1" parent="0" />
        <mxCell id="S4IBt2bdUKvmHunMlyEU-20" style="edgeStyle=orthogonalEdgeStyle;rounded=0;orthogonalLoop=1;jettySize=auto;html=1;entryX=0.5;entryY=1;entryDx=0;entryDy=0;" edge="1" parent="1" source="cr2SkAeO1g3uSyScwVag-2" target="cr2SkAeO1g3uSyScwVag-7">
          <mxGeometry relative="1" as="geometry" />
        </mxCell>
        <mxCell id="cr2SkAeO1g3uSyScwVag-2" value="" style="sketch=0;points=[[0,0,0],[0.25,0,0],[0.5,0,0],[0.75,0,0],[1,0,0],[0,1,0],[0.25,1,0],[0.5,1,0],[0.75,1,0],[1,1,0],[0,0.25,0],[0,0.5,0],[0,0.75,0],[1,0.25,0],[1,0.5,0],[1,0.75,0]];outlineConnect=0;fontColor=#232F3E;fillColor=#8C4FFF;strokeColor=#ffffff;dashed=0;verticalLabelPosition=bottom;verticalAlign=top;align=center;html=1;fontSize=12;fontStyle=0;aspect=fixed;shape=mxgraph.aws4.resourceIcon;resIcon=mxgraph.aws4.glue;" vertex="1" parent="1">
          <mxGeometry x="4735" y="-1414" width="78" height="78" as="geometry" />
        </mxCell>
        <mxCell id="S4IBt2bdUKvmHunMlyEU-27" style="edgeStyle=orthogonalEdgeStyle;rounded=0;orthogonalLoop=1;jettySize=auto;html=1;" edge="1" parent="1" source="cr2SkAeO1g3uSyScwVag-4" target="cr2SkAeO1g3uSyScwVag-27">
          <mxGeometry relative="1" as="geometry">
            <Array as="points">
              <mxPoint x="4781" y="-1273" />
              <mxPoint x="4859" y="-1273" />
            </Array>
          </mxGeometry>
        </mxCell>
        <mxCell id="cr2SkAeO1g3uSyScwVag-4" value="&lt;p style=&quot;margin-top: 0pt; margin-bottom: 0pt; direction: ltr; unicode-bidi: embed; vertical-align: baseline;&quot;&gt;&lt;span style=&quot;font-size: 12pt; font-family: Arial;&quot;&gt;AWS Glue&lt;/span&gt;&lt;/p&gt;&lt;p style=&quot;margin-top: 0pt; margin-bottom: 0pt; direction: ltr; unicode-bidi: embed; vertical-align: baseline;&quot;&gt;&lt;font face=&quot;Arial&quot;&gt;&lt;span style=&quot;font-size: 16px;&quot;&gt;ETL Job&lt;/span&gt;&lt;/font&gt;&lt;/p&gt;" style="text;strokeColor=none;align=center;fillColor=none;html=1;verticalAlign=middle;whiteSpace=wrap;rounded=0;" vertex="1" parent="1">
          <mxGeometry x="4719" y="-1333" width="110" height="30" as="geometry" />
        </mxCell>
        <mxCell id="S4IBt2bdUKvmHunMlyEU-21" style="edgeStyle=orthogonalEdgeStyle;rounded=0;orthogonalLoop=1;jettySize=auto;html=1;" edge="1" parent="1" source="cr2SkAeO1g3uSyScwVag-6" target="cr2SkAeO1g3uSyScwVag-8">
          <mxGeometry relative="1" as="geometry" />
        </mxCell>
        <mxCell id="cr2SkAeO1g3uSyScwVag-6" value="" style="sketch=0;points=[[0,0,0],[0.25,0,0],[0.5,0,0],[0.75,0,0],[1,0,0],[0,1,0],[0.25,1,0],[0.5,1,0],[0.75,1,0],[1,1,0],[0,0.25,0],[0,0.5,0],[0,0.75,0],[1,0.25,0],[1,0.5,0],[1,0.75,0]];outlineConnect=0;fontColor=#232F3E;fillColor=#8C4FFF;strokeColor=#ffffff;dashed=0;verticalLabelPosition=bottom;verticalAlign=top;align=center;html=1;fontSize=12;fontStyle=0;aspect=fixed;shape=mxgraph.aws4.resourceIcon;resIcon=mxgraph.aws4.glue;" vertex="1" parent="1">
          <mxGeometry x="4735" y="-1772" width="78" height="78" as="geometry" />
        </mxCell>
        <mxCell id="cr2SkAeO1g3uSyScwVag-7" value="&lt;p style=&quot;margin-top: 0pt; margin-bottom: 0pt; direction: ltr; unicode-bidi: embed; vertical-align: baseline;&quot;&gt;&lt;span style=&quot;font-size: 12pt; font-family: Arial;&quot;&gt;AWS Glue&lt;/span&gt;&lt;/p&gt;&lt;p style=&quot;margin-top: 0pt; margin-bottom: 0pt; direction: ltr; unicode-bidi: embed; vertical-align: baseline;&quot;&gt;&lt;font face=&quot;Arial&quot;&gt;&lt;span style=&quot;font-size: 16px;&quot;&gt;Crawler&lt;/span&gt;&lt;/font&gt;&lt;/p&gt;" style="text;strokeColor=none;align=center;fillColor=none;html=1;verticalAlign=middle;whiteSpace=wrap;rounded=0;" vertex="1" parent="1">
          <mxGeometry x="4719" y="-1691" width="110" height="30" as="geometry" />
        </mxCell>
        <mxCell id="S4IBt2bdUKvmHunMlyEU-22" style="edgeStyle=orthogonalEdgeStyle;rounded=0;orthogonalLoop=1;jettySize=auto;html=1;" edge="1" parent="1" source="cr2SkAeO1g3uSyScwVag-8" target="cr2SkAeO1g3uSyScwVag-11">
          <mxGeometry relative="1" as="geometry" />
        </mxCell>
        <mxCell id="cr2SkAeO1g3uSyScwVag-8" value="" style="sketch=0;points=[[0,0,0],[0.25,0,0],[0.5,0,0],[0.75,0,0],[1,0,0],[0,1,0],[0.25,1,0],[0.5,1,0],[0.75,1,0],[1,1,0],[0,0.25,0],[0,0.5,0],[0,0.75,0],[1,0.25,0],[1,0.5,0],[1,0.75,0]];outlineConnect=0;fontColor=#232F3E;fillColor=#8C4FFF;strokeColor=#ffffff;dashed=0;verticalLabelPosition=bottom;verticalAlign=top;align=center;html=1;fontSize=12;fontStyle=0;aspect=fixed;shape=mxgraph.aws4.resourceIcon;resIcon=mxgraph.aws4.athena;" vertex="1" parent="1">
          <mxGeometry x="4990" y="-1772" width="78" height="78" as="geometry" />
        </mxCell>
        <mxCell id="S4IBt2bdUKvmHunMlyEU-26" style="edgeStyle=orthogonalEdgeStyle;rounded=0;orthogonalLoop=1;jettySize=auto;html=1;" edge="1" parent="1" source="cr2SkAeO1g3uSyScwVag-10" target="cr2SkAeO1g3uSyScwVag-59">
          <mxGeometry relative="1" as="geometry" />
        </mxCell>
        <mxCell id="cr2SkAeO1g3uSyScwVag-10" value="&lt;p style=&quot;margin-top: 0pt; margin-bottom: 0pt; direction: ltr; unicode-bidi: embed; vertical-align: baseline;&quot;&gt;&lt;span style=&quot;font-size: 12pt; font-family: Arial;&quot;&gt;Amazon Athena&lt;/span&gt;&lt;/p&gt;" style="text;strokeColor=none;align=center;fillColor=none;html=1;verticalAlign=middle;whiteSpace=wrap;rounded=0;" vertex="1" parent="1">
          <mxGeometry x="4965" y="-1694.25" width="128" height="30.25" as="geometry" />
        </mxCell>
        <mxCell id="cr2SkAeO1g3uSyScwVag-11" value="" style="sketch=0;points=[[0,0,0],[0.25,0,0],[0.5,0,0],[0.75,0,0],[1,0,0],[0,1,0],[0.25,1,0],[0.5,1,0],[0.75,1,0],[1,1,0],[0,0.25,0],[0,0.5,0],[0,0.75,0],[1,0.25,0],[1,0.5,0],[1,0.75,0]];outlineConnect=0;fontColor=#232F3E;fillColor=#8C4FFF;strokeColor=#ffffff;dashed=0;verticalLabelPosition=bottom;verticalAlign=top;align=center;html=1;fontSize=12;fontStyle=0;aspect=fixed;shape=mxgraph.aws4.resourceIcon;resIcon=mxgraph.aws4.quicksight;" vertex="1" parent="1">
          <mxGeometry x="5226.5" y="-1772" width="78" height="78" as="geometry" />
        </mxCell>
        <mxCell id="cr2SkAeO1g3uSyScwVag-12" value="&lt;p style=&quot;margin-top: 0pt; margin-bottom: 0pt; direction: ltr; unicode-bidi: embed; vertical-align: baseline;&quot;&gt;&lt;span style=&quot;font-size: 12pt; font-family: Arial;&quot;&gt;Amazon&amp;nbsp;&lt;/span&gt;&lt;span style=&quot;font-size: 12pt; font-family: Arial;&quot;&gt;QuickSight&lt;/span&gt;&lt;/p&gt;" style="text;strokeColor=none;align=center;fillColor=none;html=1;verticalAlign=middle;whiteSpace=wrap;rounded=0;" vertex="1" parent="1">
          <mxGeometry x="5189" y="-1694" width="153" height="30" as="geometry" />
        </mxCell>
        <mxCell id="cr2SkAeO1g3uSyScwVag-14" value="" style="sketch=0;points=[[0,0,0],[0.25,0,0],[0.5,0,0],[0.75,0,0],[1,0,0],[0,1,0],[0.25,1,0],[0.5,1,0],[0.75,1,0],[1,1,0],[0,0.25,0],[0,0.5,0],[0,0.75,0],[1,0.25,0],[1,0.5,0],[1,0.75,0]];outlineConnect=0;fontColor=#232F3E;fillColor=#7AA116;strokeColor=#ffffff;dashed=0;verticalLabelPosition=bottom;verticalAlign=top;align=center;html=1;fontSize=12;fontStyle=0;aspect=fixed;shape=mxgraph.aws4.resourceIcon;resIcon=mxgraph.aws4.s3;" vertex="1" parent="1">
          <mxGeometry x="4629" y="-1210.62" width="78" height="78" as="geometry" />
        </mxCell>
        <mxCell id="cr2SkAeO1g3uSyScwVag-15" value="&lt;span style=&quot;font-size: 12pt; font-family: Arial;&quot;&gt;Amazon S3&lt;br&gt;2team-result-RDS-Survey&lt;/span&gt;" style="text;strokeColor=none;align=center;fillColor=none;html=1;verticalAlign=middle;whiteSpace=wrap;rounded=0;" vertex="1" parent="1">
          <mxGeometry x="4563" y="-1132.62" width="210" height="51" as="geometry" />
        </mxCell>
        <mxCell id="cr2SkAeO1g3uSyScwVag-16" value="" style="sketch=0;points=[[0,0,0],[0.25,0,0],[0.5,0,0],[0.75,0,0],[1,0,0],[0,1,0],[0.25,1,0],[0.5,1,0],[0.75,1,0],[1,1,0],[0,0.25,0],[0,0.5,0],[0,0.75,0],[1,0.25,0],[1,0.5,0],[1,0.75,0]];outlineConnect=0;fontColor=#232F3E;fillColor=#7AA116;strokeColor=#ffffff;dashed=0;verticalLabelPosition=bottom;verticalAlign=top;align=center;html=1;fontSize=12;fontStyle=0;aspect=fixed;shape=mxgraph.aws4.resourceIcon;resIcon=mxgraph.aws4.s3;" vertex="1" parent="1">
          <mxGeometry x="3759.25" y="-1291.62" width="78" height="78" as="geometry" />
        </mxCell>
        <mxCell id="S4IBt2bdUKvmHunMlyEU-2" style="edgeStyle=orthogonalEdgeStyle;rounded=0;orthogonalLoop=1;jettySize=auto;html=1;" edge="1" parent="1" source="cr2SkAeO1g3uSyScwVag-18" target="cr2SkAeO1g3uSyScwVag-37">
          <mxGeometry relative="1" as="geometry" />
        </mxCell>
        <mxCell id="cr2SkAeO1g3uSyScwVag-18" value="" style="sketch=0;points=[[0,0,0],[0.25,0,0],[0.5,0,0],[0.75,0,0],[1,0,0],[0,1,0],[0.25,1,0],[0.5,1,0],[0.75,1,0],[1,1,0],[0,0.25,0],[0,0.5,0],[0,0.75,0],[1,0.25,0],[1,0.5,0],[1,0.75,0]];outlineConnect=0;fontColor=#232F3E;fillColor=#ED7100;strokeColor=#ffffff;dashed=0;verticalLabelPosition=bottom;verticalAlign=top;align=center;html=1;fontSize=12;fontStyle=0;aspect=fixed;shape=mxgraph.aws4.resourceIcon;resIcon=mxgraph.aws4.lambda;" vertex="1" parent="1">
          <mxGeometry x="4000.25" y="-1291.62" width="78" height="78" as="geometry" />
        </mxCell>
        <mxCell id="cr2SkAeO1g3uSyScwVag-19" value="&lt;p style=&quot;margin-top: 0pt; margin-bottom: 0pt; direction: ltr; unicode-bidi: embed; vertical-align: baseline;&quot;&gt;&lt;span style=&quot;font-size: 12pt; font-family: Arial;&quot;&gt;AWS Lambda&lt;/span&gt;&lt;/p&gt;" style="text;strokeColor=none;align=center;fillColor=none;html=1;verticalAlign=middle;whiteSpace=wrap;rounded=0;" vertex="1" parent="1">
          <mxGeometry x="3984.25" y="-1210.62" width="110" height="30" as="geometry" />
        </mxCell>
        <mxCell id="cr2SkAeO1g3uSyScwVag-20" value="&lt;font style=&quot;font-size: 16px;&quot;&gt;&lt;span style=&quot;font-family: Arial;&quot;&gt;Amazon S3&lt;br&gt;&lt;/span&gt;2team-raw-survey&lt;/font&gt;" style="text;strokeColor=none;align=center;fillColor=none;html=1;verticalAlign=middle;whiteSpace=wrap;rounded=0;" vertex="1" parent="1">
          <mxGeometry x="3725.75" y="-1213.12" width="145" height="48.75" as="geometry" />
        </mxCell>
        <mxCell id="cr2SkAeO1g3uSyScwVag-21" style="edgeStyle=orthogonalEdgeStyle;rounded=0;orthogonalLoop=1;jettySize=auto;html=1;entryX=0;entryY=0.5;entryDx=0;entryDy=0;entryPerimeter=0;" edge="1" parent="1" source="cr2SkAeO1g3uSyScwVag-16" target="cr2SkAeO1g3uSyScwVag-18">
          <mxGeometry relative="1" as="geometry" />
        </mxCell>
        <mxCell id="cr2SkAeO1g3uSyScwVag-22" style="edgeStyle=orthogonalEdgeStyle;rounded=0;orthogonalLoop=1;jettySize=auto;html=1;" edge="1" parent="1" source="cr2SkAeO1g3uSyScwVag-23" target="cr2SkAeO1g3uSyScwVag-25">
          <mxGeometry relative="1" as="geometry" />
        </mxCell>
        <mxCell id="cr2SkAeO1g3uSyScwVag-23" value="" style="sketch=0;points=[[0,0,0],[0.25,0,0],[0.5,0,0],[0.75,0,0],[1,0,0],[0,1,0],[0.25,1,0],[0.5,1,0],[0.75,1,0],[1,1,0],[0,0.25,0],[0,0.5,0],[0,0.75,0],[1,0.25,0],[1,0.5,0],[1,0.75,0]];outlineConnect=0;fontColor=#232F3E;fillColor=#C925D1;strokeColor=#ffffff;dashed=0;verticalLabelPosition=bottom;verticalAlign=top;align=center;html=1;fontSize=12;fontStyle=0;aspect=fixed;shape=mxgraph.aws4.resourceIcon;resIcon=mxgraph.aws4.rds;" vertex="1" parent="1">
          <mxGeometry x="3759.25" y="-1540.9999999999998" width="78" height="78" as="geometry" />
        </mxCell>
        <mxCell id="cr2SkAeO1g3uSyScwVag-24" value="&lt;span style=&quot;font-size: 12pt; font-family: Arial;&quot;&gt;Amazon RDS&lt;/span&gt;" style="text;strokeColor=none;align=center;fillColor=none;html=1;verticalAlign=middle;whiteSpace=wrap;rounded=0;fontSize=16;" vertex="1" parent="1">
          <mxGeometry x="3734.5" y="-1462.9999999999998" width="127.5" height="30" as="geometry" />
        </mxCell>
        <mxCell id="S4IBt2bdUKvmHunMlyEU-5" style="edgeStyle=orthogonalEdgeStyle;rounded=0;orthogonalLoop=1;jettySize=auto;html=1;" edge="1" parent="1" source="cr2SkAeO1g3uSyScwVag-25" target="S4IBt2bdUKvmHunMlyEU-3">
          <mxGeometry relative="1" as="geometry" />
        </mxCell>
        <mxCell id="cr2SkAeO1g3uSyScwVag-25" value="" style="sketch=0;points=[[0,0,0],[0.25,0,0],[0.5,0,0],[0.75,0,0],[1,0,0],[0,1,0],[0.25,1,0],[0.5,1,0],[0.75,1,0],[1,1,0],[0,0.25,0],[0,0.5,0],[0,0.75,0],[1,0.25,0],[1,0.5,0],[1,0.75,0]];outlineConnect=0;fontColor=#232F3E;fillColor=#8C4FFF;strokeColor=#ffffff;dashed=0;verticalLabelPosition=bottom;verticalAlign=top;align=center;html=1;fontSize=12;fontStyle=0;aspect=fixed;shape=mxgraph.aws4.resourceIcon;resIcon=mxgraph.aws4.glue;" vertex="1" parent="1">
          <mxGeometry x="4000.25" y="-1540.9999999999998" width="78" height="78" as="geometry" />
        </mxCell>
        <mxCell id="cr2SkAeO1g3uSyScwVag-27" value="" style="sketch=0;points=[[0,0,0],[0.25,0,0],[0.5,0,0],[0.75,0,0],[1,0,0],[0,1,0],[0.25,1,0],[0.5,1,0],[0.75,1,0],[1,1,0],[0,0.25,0],[0,0.5,0],[0,0.75,0],[1,0.25,0],[1,0.5,0],[1,0.75,0]];outlineConnect=0;fontColor=#232F3E;fillColor=#E7157B;strokeColor=#ffffff;dashed=0;verticalLabelPosition=bottom;verticalAlign=top;align=center;html=1;fontSize=12;fontStyle=0;aspect=fixed;shape=mxgraph.aws4.resourceIcon;resIcon=mxgraph.aws4.eventbridge;" vertex="1" parent="1">
          <mxGeometry x="4820.5" y="-1210.62" width="78" height="78" as="geometry" />
        </mxCell>
        <mxCell id="S4IBt2bdUKvmHunMlyEU-28" style="edgeStyle=orthogonalEdgeStyle;rounded=0;orthogonalLoop=1;jettySize=auto;html=1;" edge="1" parent="1" source="cr2SkAeO1g3uSyScwVag-28" target="cr2SkAeO1g3uSyScwVag-30">
          <mxGeometry relative="1" as="geometry" />
        </mxCell>
        <mxCell id="cr2SkAeO1g3uSyScwVag-28" value="&lt;p style=&quot;margin-top: 0pt; margin-bottom: 0pt; direction: ltr; unicode-bidi: embed; vertical-align: baseline;&quot;&gt;&lt;span style=&quot;font-size: 12pt; font-family: Arial;&quot;&gt;Amazon&amp;nbsp;&lt;/span&gt;&lt;span style=&quot;font-size: 12pt; font-family: Arial;&quot;&gt;EventBridge&lt;/span&gt;&lt;/p&gt;" style="text;strokeColor=none;align=center;fillColor=none;html=1;verticalAlign=middle;whiteSpace=wrap;rounded=0;" vertex="1" parent="1">
          <mxGeometry x="4776" y="-1127.62" width="167" height="30" as="geometry" />
        </mxCell>
        <mxCell id="S4IBt2bdUKvmHunMlyEU-30" style="edgeStyle=orthogonalEdgeStyle;rounded=0;orthogonalLoop=1;jettySize=auto;html=1;" edge="1" parent="1" source="cr2SkAeO1g3uSyScwVag-30" target="cr2SkAeO1g3uSyScwVag-32">
          <mxGeometry relative="1" as="geometry" />
        </mxCell>
        <mxCell id="cr2SkAeO1g3uSyScwVag-30" value="" style="sketch=0;points=[[0,0,0],[0.25,0,0],[0.5,0,0],[0.75,0,0],[1,0,0],[0,1,0],[0.25,1,0],[0.5,1,0],[0.75,1,0],[1,1,0],[0,0.25,0],[0,0.5,0],[0,0.75,0],[1,0.25,0],[1,0.5,0],[1,0.75,0]];outlineConnect=0;fontColor=#232F3E;fillColor=#ED7100;strokeColor=#ffffff;dashed=0;verticalLabelPosition=bottom;verticalAlign=top;align=center;html=1;fontSize=12;fontStyle=0;aspect=fixed;shape=mxgraph.aws4.resourceIcon;resIcon=mxgraph.aws4.lambda;" vertex="1" parent="1">
          <mxGeometry x="4820.5" y="-1021" width="78" height="78" as="geometry" />
        </mxCell>
        <mxCell id="cr2SkAeO1g3uSyScwVag-31" value="&lt;p style=&quot;margin-top: 0pt; margin-bottom: 0pt; direction: ltr; unicode-bidi: embed; vertical-align: baseline;&quot;&gt;&lt;span style=&quot;font-size: 12pt; font-family: Arial;&quot;&gt;AWS Lambda&lt;/span&gt;&lt;/p&gt;" style="text;strokeColor=none;align=center;fillColor=none;html=1;verticalAlign=middle;whiteSpace=wrap;rounded=0;" vertex="1" parent="1">
          <mxGeometry x="4809" y="-946" width="110" height="30" as="geometry" />
        </mxCell>
        <mxCell id="cr2SkAeO1g3uSyScwVag-32" value="" style="shape=image;verticalLabelPosition=bottom;labelBackgroundColor=default;verticalAlign=top;aspect=fixed;imageAspect=0;image=data:image/png,iVBORw0KGgoAAAANSUhEUgAAAGQAAABkCAYAAABw4pVUAAAAAXNSR0IArs4c6QAAAARnQU1BAACxjwv8YQUAAAAJcEhZcwAAFxEAABcRAcom8z8AAB5lSURBVHhe7V0JWFNnunY6XWamM7edZ9rpTCWEHQWSgKhAEohba5e5Y12wQlC7OtYZZHerlVaFAC7V2traVk0CblQhLFpZFGWJQBZWN3Zwq7Xt9U5bu0zrd7/v5OAgHuCQENp7L9/zvA+g5Oec9z3f9v//OWfUiI2Y3a1Z6+fWohHPateKX2nTiCMR85s1PkGQOOou9ldGbDisI93Xq00refdChm9jm1b8r88PjoPrWePg4l5faNdILrdrxPmtatEc9tdHzJ7WohaFIeEdn2aOg08z/eDCHl/oSJdAu1YCnRm+cHmfH5BAXRmSrzvTRVtrteL72Y+O2FBbO4rRlS7+59UDfrdE6AuX0FuuomDNu8VqY67/b9ghRmyorCVjnKhVI75IYnAJwIUuxmN8Ab0qih1mxIbKWtW+739+aNyAntEbFMLa1OILzbvGC9ihRsxWa1ZLvJHUzk8G4R3doLxCeaZVK/k7O9yI2WptWlEoiYHVFSfp/YE86sp+P2jViArY4UbMVmtPF0V/geGKi3A+YATRiq+07/YZww45YrYY9hzLP8NSlotsPqDk3pkh+bEtfSS5D4lhk/fSFzYIQmA+r5EchBLF3eyw/7cs6NCGPwYdTBojzUpzdTuy9T72n+1i7WrJZGr0LuzhJpsPKGy1acTtXbvGidhh+zeAX8SebBAknDK7L66o+CP7rz8vk+erfi/VJS+W5yTlyPNSTDJdcpMsR3UmOFdVjl/fkeWmyNlfHVJr3evzSKtarL/2kfVe0mlJ7jcxl7zIDnuHLTIafxN3qmZSdJlxU0yFqSS2wlwfW2E8F3vKbIopN+XFlJqXriw1P8z++k9rskPrZwbnppqD81N+UBRtBkXhZgg5ugkUBZtgUtGboDi6EeS5qdfl+Wnb5AeShvygsdLaZEseIdDnsfzVskMyFn3S8OfIE4bJsWWmtOhyUz0K8t8J1fWwsu48LDefheWmM7Ci5hysqD0PcZW1P8adQpH0xlD24z+NyXSqv8tzU75SFGyG4PxUkOeo7kRuCgQfTkNxNoMsJ7ko8MD60ezHh8QwIf8VSf2SmUDkIJsPLJOP4gsHDyZMXqI/90RcZY0qtsJUg54ACYYGWGZoBBIDRQH89zsQX1mLIp2h/78RU2aMBgxr7OENn0lzVDMwPH0V8vEGbiF6IRiFURS/CRjaDgUe2PRrdhibrXWH/wNIZh1NKHKRzQcdWjFc0HjBh0c2tUZW1H+3sq6JEYIEiNObOUXgwjL8DIpzI+aUaTZ7eMNjU7O2/QHzRD2FJS7y+0JwfhoE5zGetIgdakisVSN+jyYNKR9wEc4HJEjx4aXM1R6t5/YEPiBPiSk3nI48Ujp8OUWenbqErvg+w1Q/UGBeQTHLH9NuGLLp75bdkqexUvoXTYVwkc0HXShI414FrC49joLUcpLNByQoE9rKTZHs4dnfMOzkErFchA+EkMMU4pL/GZS9fjo7nM3WuV3++3a1qPnSPusF6dT4QGu6H+woeAeW6hs4yeaLFbXn0EuMRxITE+2/QqnITXwICa2haoqLcD6YdGwLyHVJa9khh8Qu7h67+QoKMthZ338D84h6DBzN+htEoiAxmNC5yOaD5TVnURBTQ3xJ1Z/Yw7OfheStdUdBzimwtOUimw9ITFl28knFnsSH2GGttrja2vsXGJpcMw+v3kp5xHpBsNpCQcz7n4A1J4shSl/HSTYfLDedRkFNLdFlNd7sYdrPgrPXCeS65MbBJvSeoNwTnJdyQ34wScYOOyiLPHLkvhi9YWJsueEVJCDrH/qG66+XFiGZ05lcwEU2H1DYatNi2Dr6DiypPMtJNh9QjxJTYTxP3Tx7yPYzr8zEe7H/OGFtDukG4yVZySvZYXlZVKkhILrCuCJOX6PDev8qxWo6+dgqjPmYSHN10XBltxsn2XxxRe0GeTnRmEfqIWYQJW9PULMYW26sog6fPXT7WnB28uaQIxvoKuckmw/o81htVfjnJvZ50HRCsRXVfrFlhtewajkRqzdfXmZshFX1zUyj1pOEv586h1f2dujQiBhwkc0HFzVjwHDgaUg8WWBVcseLhQlZ6L072NOwv8l1qmmYR24EH0njJJsPqCdBQb4J0qn82GEZiy0xPoRXfyA2V8uxUqmI1Zu+pDJyhfkskBh9dctE3hsnjoJ53xMMqVxk80GHVgSdWh/YVrgTRUbv4/hb/SEeLxRM6F/H6KsV7CnZ38QFcfdj6dvIt0vnAjWIIYexj8lTrXq78epvYytqp6ObJ2JnfBw94nsKRdQtx1fV9SnC7TAzolCVdEntwUk2X1xSe0J2TgIzbkwF/yaRunomXJWZ3qdZYZau4TFZjmoThR2aq+IinAtMM0m/n6tC71CB/95ECNAkX4guN5agJ/yTpixo4i4OmysMT5wn3R/+ceo0fHh0C9NPUILmIpsPujTe6GnT4dXSE1ht3R4a+wI1hDTxGF1mPLH0VP0jLE3DZ8GHVFOQ3JsD5RESIIT9HWlWEkzYtxbEO1fDmG3LwWVjDPhsT4RF5eWwwohxl+NEBwPqsNecLIL6vVPggmYsJ9l8QGGLvr5ZlD6gIAnowSvRKzCn0YxvdlyFSchSNLwWkJP0CJa/DYyX3CECJu18izcEHUIR9q4FCYnw1nJw2xgHrhsIseCaFgvOadHw9AE1LK+0rTsmUHghUYqzXkBBvO8gmi9ospG8RJcTx/QjvZtECqE0Z0XFBYbKG3EVZj1NlcTo9UM2aTpoC80M/SUKspHpulkRmJCE3kAijM94HcQfvMp4ghsJgOSTCCRITwhTIkH64UZ0dQNTofQ8cWtAV/T7Bdss1RYSy0U4H5CHmfY/BcvL9VhS1zO5LKG6AVYwXbjxJpbE+uhyc0pUqfGZyMqm/2Bp+WnN99DKx2T5Kd9Qo0fhyB9FEO1YZfGETXHgkmrxgt4i9ITLhhjw2rIKnisogGWV/OJ1f6D+4fUTBXBmjxzziPVeQh7SlD4R3jqmhagqpkn8FrtvI4ak16PKDJNoAYul4edhi3YY7wkvPjg5YE9Sm2jXa+C5JYERgfEEEgG9gksALpCXPHNwDyRUWj9d0Q0KWfHlVVCY9bKN5a8YLu8Vw+HsJZdfrm5fS6X4oiLjA+zp/3wsRm8Q4ZXyfLy+dlf8qdrOKdrt4IiEMuFoECL0hFPqUpDt2gxLS6sg3sawhccGkacasdraysxNcZHNF599NA461N6lsHvUr9jT/3lY1LFqz5gKw1LsEzLxpFuoQaMSb5XpLITqDoL7pngm9HCRzQeu+Nkxby6Hl4uOQcIp272Eyt/kEh007g2xaW7rIrO+Iv6yU+39OEvFT2exJ6sFcXrT4pgK4xFseLroRFfWN2G3fPrWsiZdza+UlIHk7USslqI4yeYHS7U1K2s/k9ixarmD5MGACVsV1VCU9SJcVrvfQfRgwO6MfIOlZfgtpqvr1+QNWEV0xGFMJ28gEajx6X3iRByGLQhRv2WjIJjcURDpzo00S3pLcFuwpPI8aD9OZcrf7r7CGtBafZtGXHpuj7/NSwWDtsjKyv/Akm4ns9Oie95oAHJIkLk5By0J3YawRYJ4bV0Jfzt2ghmT628NCDxWOmZq1mJrWmCD/gic3m9bk9iVweCb5l2+Upam4TPsBbauoO0sHN7QFyhsLTlRDj5vvWpjHrGUxzOz9g4uj6AI1CMsM51m5r7w55sx5aYrUeVmbWSFYc7Z9InlV/eL0Uu4CR8ItOB19QCGLbXvKpam4TEs62biyXxDW1k4T7wPUMxHrwKFhsJW9B1EDwZUbcmx2rJUWv17Jl001KQxG9X0pm9jK4ytseXmfVhlzYssqXRIzMy8l87rYrpXbGeG703aWM1FOB/QWj0Kqu/aFDg8nTi1/NFlxsOUtAcKUb1BeSSBDVu25hEn/Lx42xp4uZij2uoORwbLeojl59oazHU7o8rMC+KruNevWz4U+7RrxNdpeZeLbD5gbuxRi2+0qEX+7LD2NWb9ocz4CeWN20jgiWWY/BcVl2DYWo25wIawhdUWhT2qtlZUNTDJnZmyYHOapbAwNqL3bMYLYU5USY0Tewp9Wkmi4m4k8wTdU2ht2KL9Xp2YSzC5r2GHta/FlVbPp0TIb93hTljCloEJW8KUpZxk8wU1mZOwaiMBlqM34Nhfx5SZzuLfeTO2zPzY0rIyR/aweVurRhx7Zb9tGyDozl2qtjJDR/2SHdZ+FltqiHy1oYWTbL6gK5qubKvzCDsB6ZQSBb7vvgEvFhbXx5+q2xavN0+LPFJp0+Rdc7poXJta8u0FG/IIe9vCp21acQA7rP2Mdm/Q4tBg80dPUMx/sagYRJgDnFN5itJjGp66fa/tK0Cy6zUIzFJBQPa6Z9nDs9laM/0faFeLi5hqiYNsPmBuW2A24vkOamOGVRZVVj0L4/L3XM3fYEAxn6okIVZLnAIgGAHYeS9GhHdWgJ96DUzcv5aZMQ7JS2V2pEhzkt+jKX72EG02TOwr6PZpLrL5grp29JL8xrcVv2WHtY+t0JvcsEM+Rz0IF9F8sbyyHmYczLhFfE8RXNhpeI/NCeD19nLw242ekLkOpNnJt9ZR6CuztnI4DaQ6VeeE/MQh2/nXpvFVYA75wpbbFtiNeFdbd/lOYIe1n0WVG3ZQXW/LtAV12FRteW1dxYSt7ql4mpr3fnclirAGAlAEZmWxe0GLFaEnmE3c+P+Bh1Qz2cOz2WrelDxI1RY974SLbL747CM/aE8XLWGH7dPOPDr/DwahcpJRGP6cSaiMbXBQLjGNDp9ldlR6sb/Svy2tqPbBSukyLU1ykd0vqCfAcEdNJZWoMvUWcN0UC97vrYRx6kQIOGARgcIRlwB3gJaAj2yAoGyVmj28ITFM7Cpr72vvBvuQAl3XgTubxNpHIu43OCqfNgrCUmsFESUmx/Cvmp2eB0ILolG4AGqFymajY8R7ptHzxOzH+rZovWEhlpnf8hWFcg5tCmM2hunNP8aWmz6Lrag59GTWBxkBH61jdpYwoWiAjRBcCDm6kfZtNdHmbvbwbDa6SRRzwHXqSXoTzRcX6D6UvZLrV/V+bjSm8fehD5gdw6cZBeHbTIJws1mgvH7e6TloQtQL5wN6xC3UOEbAGeFCRiCTY1inySFsHnNg/VlMqfFlJPqTVexdRL1FoF6F5o0sC/zMzy34VRevN/0tuqzaJbGx8d7Hj741Bq/yL0MwF3CRzQeUR+S5yTfkuqQhe75V+27Fr1rVIvNgHlTDACusjr1YaWVaGsTW7WKoe0m61fSniDSzg/JMrWPEjQYk/xySTV9reojABfr/c04LAcX70iiYN5c9vL5t6SmjHMPXAeyGPydhaJsL3eBIUyu00B9TYTqPHXM6etRiKgjYj90yumUNvSPPpg3ZCPaWh3fZYYfE2rXitJ7P0uoTJMIeFGA/Yp8EmreJoX65CKrDfOCkdCycGhMEpzEEURgiT6Crn4v8/kCiGARhnUZh2MBPkkgEuCu2oloaV2ZahH1KMlZhm+IqjSujSw1zok6YxrK/1qdJs5Mih2RDdnayeUJ+2pBVW53p44JbNZIfujjuturAq588gYRox+9byBPiRVA5m0TwhiI3Lzg62gsKnMbAcXcxmFxmI7G3h6XBgEQ8h6HN6Kgc0ouO0wKzUibKclTXbApbVG3lpXwXnLN+Bjuszda+W/Igdtt13ZONJALjBYi23RJo2iaB+mViODXDB06M94ZiDxRAgHD0giIXBIpS5DYWity9QO/2GNQIrBeEQGEOc895k2vEHZFmSM1Tl/o7uS75SPe+LWtBnw/WJaeOGsLbwzq04qRrWX7Q9RF6gkYC5zdhOCJPmOkNxyXeUIjEFzohhIhbItyOQndPOOkRBDVOgw9VPVFnyTnf1Qrnz2IPz34m0yWtpmppMPt/eyPkY/y8TmWknZLssDZb28GxIa2bxd/XLxVDJXpCyThvKCDy0QsKnZFwVxYcQnSj0A3DlocvGF1n2+QllOCbsOoyOoTb/7ldwdkpUswB1xhSOcjmBSqb81N/kOWtm8QOa5UZ/RfdU+ek9KwRRMSYPGYfLx/v/0ORy1gocEBy0RsGEoATHmOh0m06krqAk2y+aHV6AYyjw+z/RCJFSeLd0hxVGVstWQf0LgUKKs1VJbPD8jajC/YITnMlNXj1YeIsxJP/3OwYcfOM8Dkod1ZAgasnN9E8UejmCWXuMgxb4UisdaELS2ZowMLAIFAuZA/bvoZErpVbkjM34TxAXbtUl1zX391W3XbAYc6vTQ7hIWaHeXFmQUS+WRD+VXd5Sj1CHRJQK1gAle5PQbEnVU6YoDnI5gMmbHlKwOA8B8OWdV5Cx2YSKD8xCcOC2FOwrwXlJk/A5H6DafQ4yOYDy2Qjc7dVCDvsbVaiSLzbKHg2GKuVtbWO4QXYOX9GnTJVMHXCCCZO30aEIAJMrnOhxN2fucq5yOaLQvcxUOn6FP6NwecROq5mIeYPgfLjLryQ2NOxr1GTiKRWcd22wBfMJCTNbRVuSGWHHVUjXPhgnVAZaHYIX49XWFWto/IaXW00LdHIq1teAGUecoZQLqL5grykzEMGZuHgwxYzt+Wo/NY8Wjm8T9uW65LWKAqo2uImvF9QuCvcCMElW0ChWWMqdHl2av2jyjV4QoYaQfj39UgCzQ9ZTo4/IVQZVXk8CcXutoUt+uwxDwmYnObiuPz/PnkuebDBYd52lqbhM3lOkkyel/otgpv0nqASmUSgG0qPolftewNkyVEQ8HIETJr29I8Z7rOh3dEyc8rkg0Felf8Ghi3nZzEH+DJXOTfZ/FHl/iR63cDHQsdLx07ebBaEaWseWPggS9PwmaJk40Py7CR9n3NblPBJAAJ9v38tI4JsQRhIJ02HIC8ZBI4eB75O/vC6+9NwlkdIGhhInlAJZWPkSKiNYQvDHoWtvgShC4cEOIOgwgL/7kWjY1hCycOh9l157M/kOSnrbuvayRM+RgEwHGHjBzJtIshSokE6fx4EBU2DoLFSCHKaAEGO4yHIZSIEuQeCr/tEmO8xBcqcw6AeEzPXyQ8GRGAVClzkbkvIYqstdz8wuWDYYo+Lxu7OaeQVGKIuYa47XieYH13pGOHM0vLTmSw35UkU5etg6txJhMOpINu5GmRrI0G6MAyCAqdCkGsABDmjCM4oAIngFsgI0Y0A9wAI9pTBfpc5cNbGOSQCVUZG51A4PkaCxNpS/o6FYg9vqHJ7EhoElrUQyg81juGdWPHlmBzDl9WPXjDwgtSw2s2C+wMPp5YpMpNA9upikIaFQpAMPYGId/C3iOCGgvQSoTd8PSZCsvtfuMvZQQOvZmzqyj2x2rKm/MXunpn3cvaCAmdPKHcJwWIh4kqtIGKP6dF5i1GI4dnpOBhrcnvivkaX+Y6XH45YsHjynKYgxXQI9EBySQQhegOJwEF8XxiPXhLhOQUqkEiqsLiJ5g8qfyvxyi7y4J9HSASa/aXJR5oNPu7nBTWhIqiPkrSdDp8+rUS48Od1x1WTW+R9BodwEZalz9U4hH9kFiivnRFE/LjT+RkIcQqAiWxOsAYUtuSeUtBhY9cwFIJg6DO6zMJqy6//aou8AQWg9RAS4WSANzM7XJ8ggubtEqD1lQsHxF93fuw+jaXhpzezw9wJJgdlZJ2jch92zVfPYhylxEaVRSPG6wrncJjhoQB/j8F5RU8EIiaiKBS2yENsDlsCFMVJCaUeUmZKvacAtP7BhCOBxStokar6WR9oIBHetqwkdhDYBS3a99WiEW0AGIYnyfVliaMS7zI7KMOwps6vESi7SASqLHqvLdP3VBnFej4BE1AQIpaLcD7wR0HCsdoyYR7BTvd2gq1AjWAhnPJ4nFl0KnQea1kHoWl4FOZkoDcYlD7Q+KoYmt4SMyuKXZmsCL1WHJnNExpJbesHAcP/aA2yGoc5o+uEygwMHd80Y2VB3tBfc0RXtBobO8ohARxE88UEFGSqhxyyKWwNQflb77gQzrrPw+TuD8Vjx8DJIBQh3AdOvy6GlvcsZHcesHgDrbX3FqIbtN20I933JnrLZJai4TODo/LPJkflca7tLn2BYv4J7CGeHqNgSOUimw8C8bMTUdQkDFvWlL/krdQbkDfTfik8jxvm0RFl1TMntJxO9IG2Dy0ewKyvEzAccQnQG7RxwrLFSJzG0jQ8BqGhv8TYqyUx+EwXdANzCxixO44f8ySMwyaPi2y+kODnX/CYCkYnmk4f+BhIALpwaNrirNNCMDqG38Qmrhz7hPX4/V9qRkU9eCFP9DLlhS5ab+/HE/oDCdKmETVcGs4XjpkF4TMwX3zPTANwnHx/OIPJfaf7TBjvaVseofJ3OvYPh1xD4UwfXkIiUBhlpuHxe2zUvjI6hBvw+9W1gjB5vfO822J95x6RC+YAm/b/0mdbNeIbHVrxFHZY+xpgEjcKwg6dF5J33EnCQDiNV/NRl2dhBoYtSs5cZPMBiemHom50+08412stgi4UKixo7qiWFn8E4RVYdKzD4mMCbfdkT+UOgx3+96AguZbbDrgJHwiURy7u9YM2re8mdlj7Wo1woRN2oOfI7XuSwBfoWVDrNB+isdoSY9fNRTZf+GHYWuzxGFRh2XoaRaGc0CRkcsLndQJlntkh7DX0ChldROzhD2htaski5n2IHGTzBT2So00rKWvfLbR/g1gjVE7Ck/yUYjEX4XxwTrAA3nafAYGelkaPi+wB4YqJ3XkCTHENgsPCUPK8LzGv5RlGRyw1O0ZI9VauwLWqfcQoxjVbwhYJioKc79J62XevFVn16PAnMQRctyZ/dINK1QLXefBXzxAMW4PwEppmoekWwXj8OQiCxikgaPYsiJ/7krpdOH9s+R9e+B17mFZb49tev21Vi3W2vJOEbn+j18AibnvAp12MQgAm9Su2eAjlHhL0Fc/HYdxAYYsmG2nikea+aMolcCpIZ80E2bJFIN+1mtm3Nf5wSgZ7eENi7eniWHqkhrU3ibK3LJy/sMvX/g9SbvrT8w+bHMPqacs9F9l80YhVzzaPZ0DqEXR72CIBaBqeyCdvcMKvAVNAGj4XZKsWg+z9VczUPbOamJ+KgmwAWa7qk4lHUhzYQ7TZ2neLAlvVkqv0NtDeZPMBk0M0kophe9CASaD8kHZuD6YH6Q0qQ4tdwuCxMXJLk9gtAHkDNn3SCZMtIqyNBPnOV5lFLHnRJsuqYo+dkMz7SHTJN2U5KUO2r6kx0+teJPaoNWGLeTP1fnqD6DA2h7SHCBPodVvCVi0Bq62lntNhgmAcs0IolU4D6bxQkK5DETJeJ6Itq4r0fOC+9nWhOOzOyEz28IbE2jTi+UjwTcszs7jJ5wKVzG1a8actWrEPO9TwmFGgXHcGvYSudC7CudA9ZUFC0pRF/ejwf20Uz26fuHAeyN74B8j3vIHhCAWgkMQ8ZLkPEXpBwbypIblFlpsy6IcK9GWAXoKV0kfMU+V45hK674SZOlGLhvdBNWS14oj7KXQRudQNE9FcItC/UwKn3yNg2Uw79eprBRFp5x8Ke2plQsJU6ccbrgQXb7bsNrFiqxA9thw/+x161PPs4Q2JXdw3XkBPb6AbPZmbfDhEIFjmsPyY6qpZLdp5acdP9J52qvVNDuGrsQz+9DQ1ZZjoqTmjDplp0vBnEgNzzZdGQfhpbAo3Gh3nTcHP/ftNbQC/kOlS9tIr9rjI5otJx7aCLCdp1ygYNaSP+G56X+TQpRWlX8iQfHMNhaEeg54ORPeXkDdcw2rM0kiK/wurs3VcN4MOu9HqoAHJxpBUhl5xHvNLhxm7ebNDRKnRQbm5zlE5tb8pC3m2ahGzRahHsh4s6PMyXdIZadY6V3bYIbPEUaPuQsJnd2jE2Z0ZkjPoNdfoCUMY0q5cyPA1o5d80Kz1Hv4HnA1ktOW/6tH5HtXCeX7m0WHuJaMSeb1fVpGf5ivLTrpg820Lh9N+kGcnPcMOaxc7TxOQasnkll2+T7VqxHJM3j/P16/aYv7GHfdIdarsobnbSpXADjtitpgsRxUnz0u9yb7n0CrQq19lOtWtDdkjZoMp8pJ8MNxcpZtzuMjmg0nFVBgkr2OHHDGbDKsteXbyMUYQK5M7vdo1OFv1EjviiNlqspzkaPYNbpyE9wf25TKfBealTGSHGzFbLSh/g1CqS75szc09TEGgSz7whJ1fqv//zmS5yfFU/g4muTM9SHbSF8HZ635+vcD/dnusYMP9eKXvURRuwr5iAE+hiUWax8pN/VaevX5I30A9Yj1MSk+ByFO9K89P/UZRvKU7P9wSgvIMeQW9NB9/viQ9NJLIh8Vk2apwaXZyYXBOylVaiJp84i2YdHwLPUfrJopyVp6b/KE0O82X/fURGw6jLj74oCpEplv/gjxXFYMiLJXlJM1FL/Jkf2XERsxeNmrU/wBm8VG/DClT5gAAAABJRU5ErkJggg==;" vertex="1" parent="1">
          <mxGeometry x="5579" y="-1026" width="90" height="90" as="geometry" />
        </mxCell>
        <mxCell id="cr2SkAeO1g3uSyScwVag-33" value="&lt;p style=&quot;margin-top: 0pt; margin-bottom: 0pt; direction: ltr; unicode-bidi: embed; vertical-align: baseline;&quot;&gt;&lt;font face=&quot;Arial&quot;&gt;&lt;span style=&quot;font-size: 16px;&quot;&gt;Slack&lt;/span&gt;&lt;/font&gt;&lt;/p&gt;" style="text;strokeColor=none;align=center;fillColor=none;html=1;verticalAlign=middle;whiteSpace=wrap;rounded=0;" vertex="1" parent="1">
          <mxGeometry x="5594" y="-936" width="60" height="30" as="geometry" />
        </mxCell>
        <mxCell id="cr2SkAeO1g3uSyScwVag-34" value="" style="sketch=0;points=[[0,0,0],[0.25,0,0],[0.5,0,0],[0.75,0,0],[1,0,0],[0,1,0],[0.25,1,0],[0.5,1,0],[0.75,1,0],[1,1,0],[0,0.25,0],[0,0.5,0],[0,0.75,0],[1,0.25,0],[1,0.5,0],[1,0.75,0]];outlineConnect=0;fontColor=#232F3E;fillColor=#8C4FFF;strokeColor=#ffffff;dashed=0;verticalLabelPosition=bottom;verticalAlign=top;align=center;html=1;fontSize=12;fontStyle=0;aspect=fixed;shape=mxgraph.aws4.resourceIcon;resIcon=mxgraph.aws4.kinesis_data_streams;" vertex="1" parent="1">
          <mxGeometry x="3748.5" y="-1772" width="78" height="78" as="geometry" />
        </mxCell>
        <mxCell id="cr2SkAeO1g3uSyScwVag-37" value="" style="sketch=0;points=[[0,0,0],[0.25,0,0],[0.5,0,0],[0.75,0,0],[1,0,0],[0,1,0],[0.25,1,0],[0.5,1,0],[0.75,1,0],[1,1,0],[0,0.25,0],[0,0.5,0],[0,0.75,0],[1,0.25,0],[1,0.5,0],[1,0.75,0]];outlineConnect=0;fontColor=#232F3E;fillColor=#7AA116;strokeColor=#ffffff;dashed=0;verticalLabelPosition=bottom;verticalAlign=top;align=center;html=1;fontSize=12;fontStyle=0;aspect=fixed;shape=mxgraph.aws4.resourceIcon;resIcon=mxgraph.aws4.s3;" vertex="1" parent="1">
          <mxGeometry x="4241.25" y="-1291.62" width="78" height="78" as="geometry" />
        </mxCell>
        <mxCell id="cr2SkAeO1g3uSyScwVag-38" value="&lt;span style=&quot;font-size: 12pt; font-family: Arial;&quot;&gt;Amazon S3&lt;br&gt;&lt;/span&gt;&lt;div&gt;&lt;span style=&quot;font-size: 12pt; font-family: Arial;&quot;&gt;2team-clean-survey&lt;/span&gt;&lt;/div&gt;" style="text;strokeColor=none;align=center;fillColor=none;html=1;verticalAlign=middle;whiteSpace=wrap;rounded=0;" vertex="1" parent="1">
          <mxGeometry x="4162" y="-1214.38" width="236.5" height="67.38" as="geometry" />
        </mxCell>
        <mxCell id="cr2SkAeO1g3uSyScwVag-40" value="&lt;p style=&quot;margin-top: 0pt; margin-bottom: 0pt; direction: ltr; unicode-bidi: embed; vertical-align: baseline;&quot;&gt;&lt;span style=&quot;font-size: 12pt; font-family: Arial;&quot;&gt;Amazon Kinesis&lt;br&gt;Data Streams&lt;/span&gt;&lt;/p&gt;" style="text;strokeColor=none;align=center;fillColor=none;html=1;verticalAlign=middle;whiteSpace=wrap;rounded=0;" vertex="1" parent="1">
          <mxGeometry x="3733.5" y="-1689.75" width="118" height="30" as="geometry" />
        </mxCell>
        <mxCell id="cr2SkAeO1g3uSyScwVag-41" value="" style="sketch=0;points=[[0,0,0],[0.25,0,0],[0.5,0,0],[0.75,0,0],[1,0,0],[0,1,0],[0.25,1,0],[0.5,1,0],[0.75,1,0],[1,1,0],[0,0.25,0],[0,0.5,0],[0,0.75,0],[1,0.25,0],[1,0.5,0],[1,0.75,0]];outlineConnect=0;fontColor=#232F3E;fillColor=#8C4FFF;strokeColor=#ffffff;dashed=0;verticalLabelPosition=bottom;verticalAlign=top;align=center;html=1;fontSize=12;fontStyle=0;aspect=fixed;shape=mxgraph.aws4.resourceIcon;resIcon=mxgraph.aws4.kinesis_data_firehose;" vertex="1" parent="1">
          <mxGeometry x="3992" y="-1772" width="78" height="78" as="geometry" />
        </mxCell>
        <mxCell id="cr2SkAeO1g3uSyScwVag-42" value="&lt;p style=&quot;margin-top: 0pt; margin-bottom: 0pt; direction: ltr; unicode-bidi: embed; vertical-align: baseline;&quot;&gt;&lt;span style=&quot;font-size: 12pt; font-family: Arial;&quot;&gt;Amazon Kinesis&lt;br&gt;Data Firehose&lt;/span&gt;&lt;/p&gt;" style="text;strokeColor=none;align=center;fillColor=none;html=1;verticalAlign=middle;whiteSpace=wrap;rounded=0;" vertex="1" parent="1">
          <mxGeometry x="3963.75" y="-1694" width="134.5" height="30" as="geometry" />
        </mxCell>
        <mxCell id="cr2SkAeO1g3uSyScwVag-43" style="edgeStyle=orthogonalEdgeStyle;rounded=0;orthogonalLoop=1;jettySize=auto;html=1;entryX=0;entryY=0.5;entryDx=0;entryDy=0;entryPerimeter=0;" edge="1" parent="1" source="cr2SkAeO1g3uSyScwVag-34" target="cr2SkAeO1g3uSyScwVag-41">
          <mxGeometry relative="1" as="geometry" />
        </mxCell>
        <mxCell id="cr2SkAeO1g3uSyScwVag-45" value="" style="sketch=0;points=[[0,0,0],[0.25,0,0],[0.5,0,0],[0.75,0,0],[1,0,0],[0,1,0],[0.25,1,0],[0.5,1,0],[0.75,1,0],[1,1,0],[0,0.25,0],[0,0.5,0],[0,0.75,0],[1,0.25,0],[1,0.5,0],[1,0.75,0]];outlineConnect=0;fontColor=#232F3E;fillColor=#7AA116;strokeColor=#ffffff;dashed=0;verticalLabelPosition=bottom;verticalAlign=top;align=center;html=1;fontSize=12;fontStyle=0;aspect=fixed;shape=mxgraph.aws4.resourceIcon;resIcon=mxgraph.aws4.s3;" vertex="1" parent="1">
          <mxGeometry x="4246" y="-1772" width="78" height="78" as="geometry" />
        </mxCell>
        <mxCell id="cr2SkAeO1g3uSyScwVag-46" value="&lt;span style=&quot;font-size: 12pt; font-family: Arial;&quot;&gt;Amazon S3&lt;br&gt;&lt;/span&gt;&lt;div&gt;&lt;span style=&quot;font-size: 12pt; font-family: Arial;&quot;&gt;2team-clean-log&lt;/span&gt;&lt;/div&gt;" style="text;strokeColor=none;align=center;fillColor=none;html=1;verticalAlign=middle;whiteSpace=wrap;rounded=0;" vertex="1" parent="1">
          <mxGeometry x="4225" y="-1699" width="120" height="53" as="geometry" />
        </mxCell>
        <mxCell id="cr2SkAeO1g3uSyScwVag-47" style="edgeStyle=orthogonalEdgeStyle;rounded=0;orthogonalLoop=1;jettySize=auto;html=1;entryX=0;entryY=0.5;entryDx=0;entryDy=0;entryPerimeter=0;" edge="1" parent="1" source="cr2SkAeO1g3uSyScwVag-41" target="cr2SkAeO1g3uSyScwVag-45">
          <mxGeometry relative="1" as="geometry" />
        </mxCell>
        <mxCell id="cr2SkAeO1g3uSyScwVag-57" value="&lt;p style=&quot;margin-top: 0pt; margin-bottom: 0pt; direction: ltr; unicode-bidi: embed; vertical-align: baseline;&quot;&gt;&lt;span style=&quot;font-size: 12pt; font-family: Arial;&quot;&gt;AWS Glue&lt;/span&gt;&lt;/p&gt;&lt;p style=&quot;margin-top: 0pt; margin-bottom: 0pt; direction: ltr; unicode-bidi: embed; vertical-align: baseline;&quot;&gt;&lt;font face=&quot;Arial&quot;&gt;&lt;span style=&quot;font-size: 16px;&quot;&gt;ETL Job&lt;/span&gt;&lt;/font&gt;&lt;/p&gt;" style="text;strokeColor=none;align=center;fillColor=none;html=1;verticalAlign=middle;whiteSpace=wrap;rounded=0;" vertex="1" parent="1">
          <mxGeometry x="3984.25" y="-1454.3799999999999" width="110" height="30" as="geometry" />
        </mxCell>
        <mxCell id="cr2SkAeO1g3uSyScwVag-59" value="" style="sketch=0;points=[[0,0,0],[0.25,0,0],[0.5,0,0],[0.75,0,0],[1,0,0],[0,1,0],[0.25,1,0],[0.5,1,0],[0.75,1,0],[1,1,0],[0,0.25,0],[0,0.5,0],[0,0.75,0],[1,0.25,0],[1,0.5,0],[1,0.75,0]];outlineConnect=0;fontColor=#232F3E;fillColor=#7AA116;strokeColor=#ffffff;dashed=0;verticalLabelPosition=bottom;verticalAlign=top;align=center;html=1;fontSize=12;fontStyle=0;aspect=fixed;shape=mxgraph.aws4.resourceIcon;resIcon=mxgraph.aws4.s3;" vertex="1" parent="1">
          <mxGeometry x="4990" y="-1596" width="78" height="78" as="geometry" />
        </mxCell>
        <mxCell id="cr2SkAeO1g3uSyScwVag-60" value="&lt;div&gt;&lt;span style=&quot;font-size: 12pt; font-family: Arial;&quot;&gt;Amazon S3&lt;/span&gt;&lt;/div&gt;&lt;span style=&quot;font-size: 12pt; font-family: Arial;&quot;&gt;2team-query-result&lt;/span&gt;" style="text;strokeColor=none;align=center;fillColor=none;html=1;verticalAlign=middle;whiteSpace=wrap;rounded=0;" vertex="1" parent="1">
          <mxGeometry x="4945.5" y="-1518" width="167" height="50" as="geometry" />
        </mxCell>
        <mxCell id="S4IBt2bdUKvmHunMlyEU-8" style="edgeStyle=orthogonalEdgeStyle;rounded=0;orthogonalLoop=1;jettySize=auto;html=1;" edge="1" parent="1" source="Va9odeBNmCL-jFX9Tuwa-3" target="cr2SkAeO1g3uSyScwVag-2">
          <mxGeometry relative="1" as="geometry" />
        </mxCell>
        <mxCell id="Va9odeBNmCL-jFX9Tuwa-3" value="" style="sketch=0;points=[[0,0,0],[0.25,0,0],[0.5,0,0],[0.75,0,0],[1,0,0],[0,1,0],[0.25,1,0],[0.5,1,0],[0.75,1,0],[1,1,0],[0,0.25,0],[0,0.5,0],[0,0.75,0],[1,0.25,0],[1,0.5,0],[1,0.75,0]];outlineConnect=0;fontColor=#232F3E;fillColor=#8C4FFF;strokeColor=#ffffff;dashed=0;verticalLabelPosition=bottom;verticalAlign=top;align=center;html=1;fontSize=12;fontStyle=0;aspect=fixed;shape=mxgraph.aws4.resourceIcon;resIcon=mxgraph.aws4.glue;" vertex="1" parent="1">
          <mxGeometry x="4497" y="-1414" width="78" height="78" as="geometry" />
        </mxCell>
        <mxCell id="Va9odeBNmCL-jFX9Tuwa-4" value="&lt;p style=&quot;margin-top: 0pt; margin-bottom: 0pt; direction: ltr; unicode-bidi: embed; vertical-align: baseline;&quot;&gt;&lt;span style=&quot;font-size: 12pt; font-family: Arial;&quot;&gt;AWS Glue&lt;/span&gt;&lt;/p&gt;&lt;p style=&quot;margin-top: 0pt; margin-bottom: 0pt; direction: ltr; unicode-bidi: embed; vertical-align: baseline;&quot;&gt;&lt;font face=&quot;Arial&quot;&gt;&lt;span style=&quot;font-size: 16px;&quot;&gt;Data Quality&lt;/span&gt;&lt;/font&gt;&lt;/p&gt;" style="text;strokeColor=none;align=center;fillColor=none;html=1;verticalAlign=middle;whiteSpace=wrap;rounded=0;" vertex="1" parent="1">
          <mxGeometry x="4481" y="-1333" width="110" height="30" as="geometry" />
        </mxCell>
        <mxCell id="S4IBt2bdUKvmHunMlyEU-6" style="edgeStyle=orthogonalEdgeStyle;rounded=0;orthogonalLoop=1;jettySize=auto;html=1;" edge="1" parent="1" source="S4IBt2bdUKvmHunMlyEU-3" target="Va9odeBNmCL-jFX9Tuwa-3">
          <mxGeometry relative="1" as="geometry" />
        </mxCell>
        <mxCell id="S4IBt2bdUKvmHunMlyEU-3" value="" style="sketch=0;points=[[0,0,0],[0.25,0,0],[0.5,0,0],[0.75,0,0],[1,0,0],[0,1,0],[0.25,1,0],[0.5,1,0],[0.75,1,0],[1,1,0],[0,0.25,0],[0,0.5,0],[0,0.75,0],[1,0.25,0],[1,0.5,0],[1,0.75,0]];outlineConnect=0;fontColor=#232F3E;fillColor=#7AA116;strokeColor=#ffffff;dashed=0;verticalLabelPosition=bottom;verticalAlign=top;align=center;html=1;fontSize=12;fontStyle=0;aspect=fixed;shape=mxgraph.aws4.resourceIcon;resIcon=mxgraph.aws4.s3;" vertex="1" parent="1">
          <mxGeometry x="4241.25" y="-1541" width="78" height="78" as="geometry" />
        </mxCell>
        <mxCell id="S4IBt2bdUKvmHunMlyEU-4" value="&lt;span style=&quot;font-size: 12pt; font-family: Arial;&quot;&gt;Amazon S3&lt;br&gt;&lt;/span&gt;&lt;div&gt;&lt;span style=&quot;font-size: 12pt; font-family: Arial;&quot;&gt;2team-clean-RDS&lt;/span&gt;&lt;/div&gt;" style="text;strokeColor=none;align=center;fillColor=none;html=1;verticalAlign=middle;whiteSpace=wrap;rounded=0;" vertex="1" parent="1">
          <mxGeometry x="4162" y="-1464.38" width="236.5" height="68" as="geometry" />
        </mxCell>
        <mxCell id="S4IBt2bdUKvmHunMlyEU-19" style="edgeStyle=orthogonalEdgeStyle;rounded=0;orthogonalLoop=1;jettySize=auto;html=1;entryX=0;entryY=0.5;entryDx=0;entryDy=0;entryPerimeter=0;" edge="1" parent="1" source="cr2SkAeO1g3uSyScwVag-45" target="cr2SkAeO1g3uSyScwVag-6">
          <mxGeometry relative="1" as="geometry" />
        </mxCell>
        <mxCell id="S4IBt2bdUKvmHunMlyEU-25" style="edgeStyle=orthogonalEdgeStyle;rounded=0;orthogonalLoop=1;jettySize=auto;html=1;entryX=0.5;entryY=0;entryDx=0;entryDy=0;entryPerimeter=0;" edge="1" parent="1" source="cr2SkAeO1g3uSyScwVag-4" target="cr2SkAeO1g3uSyScwVag-14">
          <mxGeometry relative="1" as="geometry">
            <Array as="points">
              <mxPoint x="4770" y="-1273" />
              <mxPoint x="4668" y="-1273" />
            </Array>
          </mxGeometry>
        </mxCell>
        <mxCell id="S4IBt2bdUKvmHunMlyEU-32" style="edgeStyle=orthogonalEdgeStyle;rounded=0;orthogonalLoop=1;jettySize=auto;html=1;entryX=0.517;entryY=1.174;entryDx=0;entryDy=0;entryPerimeter=0;" edge="1" parent="1" source="cr2SkAeO1g3uSyScwVag-37" target="Va9odeBNmCL-jFX9Tuwa-4">
          <mxGeometry relative="1" as="geometry" />
        </mxCell>
      </root>
    </mxGraphModel>
  </diagram>
</mxfile>
